<svg xmlns="http://www.w3.org/2000/svg" version="1.1" xmlns:xlink="http://www.w3.org/1999/xlink" xmlns:svgjs="http://svgjs.com/svgjs" width="1440" height="560" preserveAspectRatio="none" viewBox="0 0 1440 560"><g mask="url(&quot;#SvgjsMask1015&quot;)" fill="none"><rect width="1440" height="560" x="0" y="0" fill="rgba(255, 164, 15, 1)"></rect><path d="M632.76 389.87L677.76 389.87L677.76 434.87L632.76 434.87z" stroke="rgba(4, 0, 99, 1)"></path><path d="M1123.36 418.32 a51 51 0 1 0 102 0 a51 51 0 1 0 -102 0z" stroke="rgba(25, 248, 212, 1)"></path><path d="M537.63 395.1 a49.6 49.6 0 1 0 99.2 0 a49.6 49.6 0 1 0 -99.2 0z" fill="rgba(248, 25, 25, 1)"></path><path d="M945.45 442.22a32.29 32.29 0 1 0 38.8-51.63z" fill="rgba(248, 25, 25, 1)"></path><path d="M202.93 366.87a44.32 44.32 0 1 0 65.98-59.2z" fill="rgba(248, 25, 25, 1)"></path><path d="M313.61 140.81a36.59 36.59 0 1 0-54.56 48.77z" stroke="rgba(4, 0, 99, 1)"></path><path d="M233.08 516.65L270.2 516.65L270.2 546.01L233.08 546.01z" stroke="rgba(25, 248, 212, 1)"></path><path d="M1177.99 353.01L1227.86 353.01L1227.86 367.89L1177.99 367.89z" fill="rgba(248, 25, 25, 1)"></path><path d="M450.03 324a0.63 0.63 0 1 0 1.06 0.68z" stroke="rgba(4, 0, 99, 1)"></path><path d="M881.21 435.83L918.14 435.83L918.14 472.76L881.21 472.76z" stroke="rgba(25, 248, 212, 1)"></path><path d="M33.12 409.21a19.99 19.99 0 1 0 19.81 34.73z" fill="rgba(25, 106, 248, 1)"></path><path d="M620.69 78.33a38.45 38.45 0 1 0-21.67 73.78z" fill="#e73635"></path><path d="M885.06 534.46a36.42 36.42 0 1 0-70.98-16.36z" fill="rgba(4, 0, 99, 1)"></path><path d="M1204.42 96.66L1244.82 96.66L1244.82 135.59L1204.42 135.59z" stroke="rgba(25, 248, 212, 1)"></path><path d="M226.86 276.24 a39.23 39.23 0 1 0 78.46 0 a39.23 39.23 0 1 0 -78.46 0z" fill="#037b0b"></path><path d="M479.86 136.2a9.9 9.9 0 1 0-6.67 18.64z" stroke="rgba(4, 0, 99, 1)"></path><path d="M1339.93 536.89L1377.28 536.89L1377.28 555.54L1339.93 555.54z" fill="rgba(25, 106, 248, 1)"></path><path d="M909.5 261.63 a29.83 29.83 0 1 0 59.66 0 a29.83 29.83 0 1 0 -59.66 0z" fill="#037b0b"></path><path d="M988.08 418.34L1035.53 418.34L1035.53 465.79L988.08 465.79z" stroke="rgba(248, 25, 25, 1)"></path><path d="M595.46 139.32L618.31 139.32L618.31 162.17L595.46 162.17z" fill="rgba(248, 25, 25, 1)"></path><path d="M436.85 473.79L469.47 473.79L469.47 506.41L436.85 506.41z" stroke="rgba(25, 248, 212, 1)"></path><path d="M1063.76 333.26 a39.29 39.29 0 1 0 78.58 0 a39.29 39.29 0 1 0 -78.58 0z" fill="rgba(25, 106, 248, 1)"></path><path d="M388.66 304.25a2.19 2.19 0 1 0 1.53 4.1z" stroke="rgba(4, 0, 99, 1)"></path><path d="M1057.07 0.35 a27.57 27.57 0 1 0 55.14 0 a27.57 27.57 0 1 0 -55.14 0z" fill="rgba(4, 0, 99, 1)"></path><path d="M1259.54 458.45L1261.35 458.45L1261.35 460.26L1259.54 460.26z" stroke="rgba(248, 25, 25, 1)"></path><path d="M446.11 481.6a53.83 53.83 0 1 0-68.07 83.41z" stroke="rgba(4, 0, 99, 1)"></path><path d="M731.42 188.43L750.52 188.43L750.52 207.53L731.42 207.53z" stroke="rgba(25, 106, 248, 1)"></path><path d="M376.49 145.29L393.83 145.29L393.83 162.63L376.49 162.63z" fill="rgba(25, 248, 212, 1)"></path><path d="M362.15 170.17L416.27 170.17L416.27 209.5L362.15 209.5z" stroke="rgba(4, 0, 99, 1)"></path><path d="M905.45 466.1L931.65 466.1L931.65 492.3L905.45 492.3z" fill="rgba(248, 25, 25, 1)"></path><path d="M1049.33 485.23L1098.32 485.23L1098.32 534.22L1049.33 534.22z" stroke="#037b0b"></path><path d="M851.92 78.56L872.79 78.56L872.79 99.43L851.92 99.43z" fill="rgba(4, 0, 99, 1)"></path><path d="M554.82 161.26 a54.56 54.56 0 1 0 109.12 0 a54.56 54.56 0 1 0 -109.12 0z" stroke="#e73635"></path></g><defs><mask id="SvgjsMask1015"><rect width="1440" height="560" fill="#ffffff"></rect></mask></defs></svg>