<svg xmlns="http://www.w3.org/2000/svg" version="1.1" xmlns:xlink="http://www.w3.org/1999/xlink" xmlns:svgjs="http://svgjs.com/svgjs" width="1440" height="560" preserveAspectRatio="none" viewBox="0 0 1440 560"><g mask="url(&quot;#SvgjsMask1366&quot;)" fill="none"><rect width="1440" height="560" x="0" y="0" fill="rgba(255, 170, 0, 1)"></rect><use xlink:href="#SvgjsG1374" transform="translate(0, 0)" fill="#0f457b"></use><use xlink:href="#SvgjsG1374" transform="translate(600, 0)" fill="#0f457b"></use><use xlink:href="#SvgjsG1374" transform="translate(1200, 0)" fill="#0f457b"></use></g><defs><mask id="SvgjsMask1366"><rect width="1440" height="560" fill="#ffffff"></rect></mask><g id="SvgjsG1370"><path d="M2.51 8.45L0 8.36 0.04 7.03l2.51 0.09-0.04 1.33zM3.78 4.43L2.07 2.59l0.97-0.9 1.71 1.83-0.97 0.91z m-0.24 6.81l0.9 0.97-1.83 1.71-0.9-0.97 1.83-1.71z m5.3-8.7l-1.32-0.05L7.6-0.02l1.33 0.05-0.09 2.51z m-1.71 10.89l1.33 0.05-0.09 2.51-1.32-0.05 0.08-2.5zM12.46 4.73l-0.93-0.97 1.86-1.71 0.9 0.97-1.83 1.71z m-0.24 6.79l1.71 1.86-0.97 0.9-1.7-1.84 0.96-0.92z m3.79-3.93l-0.05 1.33-2.51-0.09L13.5 7.5l2.51 0.09z"></path><path d="M3.71 7.83a4.18 4.18 0 1 0 8.36 0.3 4.18 4.18 0 1 0-8.36-0.3"></path></g><g id="SvgjsG1373"><path d="M7.09 0.85c0.04-1.18 1.82-1.12 1.78 0.09l-0.18 4.95L15.48 10.31l-0.06 1.82L8.6 9.63 8.47 13.33l1.55 1.3L9.97 16.07 7.53 15.23 5.04 15.9l0.05-1.44 1.63-1.19L6.85 9.57-0.13 11.59-0.07 9.77l6.98-3.94L7.09 0.85z"></path></g><g id="SvgjsG1369"><path d="M6.05 4.99s0.25-0.36-0.03-0.51L3.97 4.4s-0.34 0.16-0.01 0.73l2.09-0.14zM10.36 6.12s0.1 0.14-0.02 0.22l-2.67 1.93 0.3 0.45L10.62 6.83s0.04-0.08 0.17 0.09l0.03-0.27-0.46-0.53z"></path><path d="M7.93 4.5s-0.11 0.01-0.09-0.09L7.85 4.07s0.05-0.09 0.11-0.07l2.42 0.08s0.57 0.03 0.2 0.51c0 0-0.3 0.22-0.17 0.58L12.56 9.33l-0.4 0.21-1.83-3.39s0.04-0.05-0.26-0.06l-4.22-0.15 1.09 2.15-0.48 0.27L5.19 6s-0.05-0.05-0.09 0.01l-1.23 2.49s-0.03 0.07 0.09 0.08l2.29 0.09 0.04 0.48L3.41 9.05s-0.34-0.01-0.2-0.35l1.61-3.36s0.02 0-0.01-0.05l-0.14-0.26 0.64-0.06 0.09 0.2s0.02 0.09 0.13 0.08l4.21 0.15s0.16 0.04 0.17-0.16c0.01-0.19-0.12-0.24 0.04-0.55 0 0 0.06-0.11-0.06-0.12L7.93 4.5"></path><path d="M3.48 6.8a2.06 2.06 0 0 0-0.15 4.13 2.06 2.06 0 0 0 0.15-4.13zM12.32 7.11a2.06 2.06 0 1 0 1.99 2.14 2.06 2.06 0 0 0-1.99-2.14z"></path><path d="M7.12 8.31a0.69 0.69 0 1 0-0.05 1.38 0.69 0.69 0 0 0 0.05-1.38z"></path></g><g id="SvgjsG1367"><path d="M7.84 5.26c-0.02 0.52-0.52 1.07-1.14 1.05l-0.31 8.85c-0.04 1.26-1.76 1.2-1.72-0.06L4.98 6.25c-0.6-0.02-1.11-0.5-1.08-1.2L4.07 0.17c0.01-0.42 0.63-0.42 0.61 0.04l-0.12 3.61 0.51 0.01L5.19 0.2c0.01-0.39 0.6-0.39 0.59 0.03l-0.12 3.62 0.52 0.02L6.31 0.24C6.33-0.17 6.9-0.16 6.88 0.28l-0.12 3.61 0.52 0.02L7.41 0.28c0.01-0.41 0.61-0.4 0.6 0.04l-0.17 4.94zM12.54 1.6l-0.49 13.75c-0.04 1.23-1.76 1.15-1.71-0.05L10.53 9.84l-0.91-0.04L9.91 1.51c0.07-1.93 2.7-1.84 2.63 0.09z"></path></g><g id="SvgjsG1368"><path d="M1.1 8.6c1.04-1.14 2.9-1.91 4.44-1.59 0.25-2.14 0.07-4.16 1.21-6.1C3.43 1.01 1.71 6.03 1.1 8.6M12.99 5.24c0.73-0.81 2.39-1.17 3.23-0.36C14.07 1.65 11.36-0.47 7.34 0.74c3.07 1.05 5.14 4.02 5.65 4.5"></path><path d="M12.36 5.35C11.33 3.8 8 1.26 7.25 1.39c-0.81 0.13-1.19 4.66-1.15 5.64 0.51-0.87 1.26-1.52 2.11-1.92l3.13 9.54 0.48-0.1-3.16-9.61c1.17-0.39 2.5-0.3 3.7 0.41"></path></g><g id="SvgjsG1371"><path d="M12.66 14.22L8.81 14.09l0.19-5.48L16.24 0.28 0.28-0.27l6.77 8.77-0.19 5.52-3.77-0.13c-1.3-0.04-1.37 1.9-0.07 1.94L12.59 16.17c1.3 0.05 1.35-1.9 0.07-1.95zM8.13 4.81c0.02-0.68 0.6-1.22 1.28-1.19 0.68 0.02 1.22 0.6 1.19 1.28-0.02 0.69-0.59 1.22-1.27 1.19-0.68-0.02-1.22-0.59-1.2-1.28z"></path></g><g id="SvgjsG1372"><path d="M7.78 3.53A1.06 1.06 0 1 0 7.85 1.41a1.06 1.06 0 0 0-0.07 2.12m-1.79 0.11a0.3 0.3 0 0 0-0.21-0.37l-0.87-0.24a0.3 0.3 0 0 0-0.38 0.2L3.69 6.27a0.3 0.3 0 0 0 0.21 0.38l0.88 0.24c0.16 0.05 0.33-0.05 0.37-0.21L5.99 3.64z m3.68 11.04l0 0.02a0.24 0.24 0 0 0 0.48 0.05l2.11-9.56 0-0.03a0.24 0.24 0 0 0-0.23-0.25c-0.12 0-0.22 0.09-0.25 0.21L9.67 14.68zM3.79 13.84a0.74 0.74 0 0 0 1.43 0.42l1.47-5.25 1.03 5.3a0.74 0.74 0 0 0 1.46-0.29L7.75 6.98l0.17-0.61 0.09 0.49c0.09 0.32 0.37 0.36 0.37 0.36l1.71 0.49a0.51 0.51 0 0 0 0.26-0.98l-1.48-0.43-0.35-1.67c-0.16-0.93-1.05-0.94-1.06-0.95-0.86-0.05-1.11 0.85-1.1 0.85L3.79 13.84z" fill-rule="evenodd"></path></g><g id="SvgjsG1374"><use xlink:href="#SvgjsG1367" transform="translate(0, 0) scale(2)" fill="#0f457b"></use><use xlink:href="#SvgjsG1368" transform="translate(0, 60) scale(2)" fill="#0f457b"></use><use xlink:href="#SvgjsG1369" transform="translate(0, 120) scale(2)" fill="#0f457b"></use><use xlink:href="#SvgjsG1368" transform="translate(0, 180) scale(2)" fill="#0f457b"></use><use xlink:href="#SvgjsG1370" transform="translate(0, 240) scale(2)" fill="#0f457b"></use><use xlink:href="#SvgjsG1369" transform="translate(0, 300) scale(2)" fill="#0f457b"></use><use xlink:href="#SvgjsG1369" transform="translate(0, 360) scale(2)" fill="#0f457b"></use><use xlink:href="#SvgjsG1371" transform="translate(0, 420) scale(2)" fill="#0f457b"></use><use xlink:href="#SvgjsG1369" transform="translate(0, 480) scale(2)" fill="#0f457b"></use><use xlink:href="#SvgjsG1368" transform="translate(0, 540) scale(2)" fill="#0f457b"></use><use xlink:href="#SvgjsG1369" transform="translate(60, 0) scale(2)" fill="#0f457b"></use><use xlink:href="#SvgjsG1372" transform="translate(60, 60) scale(2)" fill="#0f457b"></use><use xlink:href="#SvgjsG1370" transform="translate(60, 120) scale(2)" fill="#0f457b"></use><use xlink:href="#SvgjsG1373" transform="translate(60, 180) scale(2)" fill="#0f457b"></use><use xlink:href="#SvgjsG1369" transform="translate(60, 240) scale(2)" fill="#0f457b"></use><use xlink:href="#SvgjsG1372" transform="translate(60, 300) scale(2)" fill="#0f457b"></use><use xlink:href="#SvgjsG1371" transform="translate(60, 360) scale(2)" fill="#0f457b"></use><use xlink:href="#SvgjsG1369" transform="translate(60, 420) scale(2)" fill="#0f457b"></use><use xlink:href="#SvgjsG1372" transform="translate(60, 480) scale(2)" fill="#0f457b"></use><use xlink:href="#SvgjsG1369" transform="translate(60, 540) scale(2)" fill="#0f457b"></use><use xlink:href="#SvgjsG1372" transform="translate(120, 0) scale(2)" fill="#0f457b"></use><use xlink:href="#SvgjsG1371" transform="translate(120, 60) scale(2)" fill="#0f457b"></use><use xlink:href="#SvgjsG1372" transform="translate(120, 120) scale(2)" fill="#0f457b"></use><use xlink:href="#SvgjsG1372" transform="translate(120, 180) scale(2)" fill="#0f457b"></use><use xlink:href="#SvgjsG1367" transform="translate(120, 240) scale(2)" fill="#0f457b"></use><use xlink:href="#SvgjsG1371" transform="translate(120, 300) scale(2)" fill="#0f457b"></use><use xlink:href="#SvgjsG1368" transform="translate(120, 360) scale(2)" fill="#0f457b"></use><use xlink:href="#SvgjsG1369" transform="translate(120, 420) scale(2)" fill="#0f457b"></use><use xlink:href="#SvgjsG1367" transform="translate(120, 480) scale(2)" fill="#0f457b"></use><use xlink:href="#SvgjsG1371" transform="translate(120, 540) scale(2)" fill="#0f457b"></use><use xlink:href="#SvgjsG1369" transform="translate(180, 0) scale(2)" fill="#0f457b"></use><use xlink:href="#SvgjsG1370" transform="translate(180, 60) scale(2)" fill="#0f457b"></use><use xlink:href="#SvgjsG1367" transform="translate(180, 120) scale(2)" fill="#0f457b"></use><use xlink:href="#SvgjsG1372" transform="translate(180, 180) scale(2)" fill="#0f457b"></use><use xlink:href="#SvgjsG1370" transform="translate(180, 240) scale(2)" fill="#0f457b"></use><use xlink:href="#SvgjsG1372" transform="translate(180, 300) scale(2)" fill="#0f457b"></use><use xlink:href="#SvgjsG1368" transform="translate(180, 360) scale(2)" fill="#0f457b"></use><use xlink:href="#SvgjsG1369" transform="translate(180, 420) scale(2)" fill="#0f457b"></use><use xlink:href="#SvgjsG1371" transform="translate(180, 480) scale(2)" fill="#0f457b"></use><use xlink:href="#SvgjsG1373" transform="translate(180, 540) scale(2)" fill="#0f457b"></use><use xlink:href="#SvgjsG1370" transform="translate(240, 0) scale(2)" fill="#0f457b"></use><use xlink:href="#SvgjsG1369" transform="translate(240, 60) scale(2)" fill="#0f457b"></use><use xlink:href="#SvgjsG1369" transform="translate(240, 120) scale(2)" fill="#0f457b"></use><use xlink:href="#SvgjsG1367" transform="translate(240, 180) scale(2)" fill="#0f457b"></use><use xlink:href="#SvgjsG1368" transform="translate(240, 240) scale(2)" fill="#0f457b"></use><use xlink:href="#SvgjsG1372" transform="translate(240, 300) scale(2)" fill="#0f457b"></use><use xlink:href="#SvgjsG1369" transform="translate(240, 360) scale(2)" fill="#0f457b"></use><use xlink:href="#SvgjsG1373" transform="translate(240, 420) scale(2)" fill="#0f457b"></use><use xlink:href="#SvgjsG1370" transform="translate(240, 480) scale(2)" fill="#0f457b"></use><use xlink:href="#SvgjsG1370" transform="translate(240, 540) scale(2)" fill="#0f457b"></use><use xlink:href="#SvgjsG1367" transform="translate(300, 0) scale(2)" fill="#0f457b"></use><use xlink:href="#SvgjsG1372" transform="translate(300, 60) scale(2)" fill="#0f457b"></use><use xlink:href="#SvgjsG1369" transform="translate(300, 120) scale(2)" fill="#0f457b"></use><use xlink:href="#SvgjsG1369" transform="translate(300, 180) scale(2)" fill="#0f457b"></use><use xlink:href="#SvgjsG1370" transform="translate(300, 240) scale(2)" fill="#0f457b"></use><use xlink:href="#SvgjsG1372" transform="translate(300, 300) scale(2)" fill="#0f457b"></use><use xlink:href="#SvgjsG1371" transform="translate(300, 360) scale(2)" fill="#0f457b"></use><use xlink:href="#SvgjsG1372" transform="translate(300, 420) scale(2)" fill="#0f457b"></use><use xlink:href="#SvgjsG1373" transform="translate(300, 480) scale(2)" fill="#0f457b"></use><use xlink:href="#SvgjsG1371" transform="translate(300, 540) scale(2)" fill="#0f457b"></use><use xlink:href="#SvgjsG1373" transform="translate(360, 0) scale(2)" fill="#0f457b"></use><use xlink:href="#SvgjsG1368" transform="translate(360, 60) scale(2)" fill="#0f457b"></use><use xlink:href="#SvgjsG1372" transform="translate(360, 120) scale(2)" fill="#0f457b"></use><use xlink:href="#SvgjsG1372" transform="translate(360, 180) scale(2)" fill="#0f457b"></use><use xlink:href="#SvgjsG1369" transform="translate(360, 240) scale(2)" fill="#0f457b"></use><use xlink:href="#SvgjsG1370" transform="translate(360, 300) scale(2)" fill="#0f457b"></use><use xlink:href="#SvgjsG1367" transform="translate(360, 360) scale(2)" fill="#0f457b"></use><use xlink:href="#SvgjsG1369" transform="translate(360, 420) scale(2)" fill="#0f457b"></use><use xlink:href="#SvgjsG1371" transform="translate(360, 480) scale(2)" fill="#0f457b"></use><use xlink:href="#SvgjsG1369" transform="translate(360, 540) scale(2)" fill="#0f457b"></use><use xlink:href="#SvgjsG1371" transform="translate(420, 0) scale(2)" fill="#0f457b"></use><use xlink:href="#SvgjsG1367" transform="translate(420, 60) scale(2)" fill="#0f457b"></use><use xlink:href="#SvgjsG1372" transform="translate(420, 120) scale(2)" fill="#0f457b"></use><use xlink:href="#SvgjsG1368" transform="translate(420, 180) scale(2)" fill="#0f457b"></use><use xlink:href="#SvgjsG1371" transform="translate(420, 240) scale(2)" fill="#0f457b"></use><use xlink:href="#SvgjsG1370" transform="translate(420, 300) scale(2)" fill="#0f457b"></use><use xlink:href="#SvgjsG1372" transform="translate(420, 360) scale(2)" fill="#0f457b"></use><use xlink:href="#SvgjsG1367" transform="translate(420, 420) scale(2)" fill="#0f457b"></use><use xlink:href="#SvgjsG1370" transform="translate(420, 480) scale(2)" fill="#0f457b"></use><use xlink:href="#SvgjsG1368" transform="translate(420, 540) scale(2)" fill="#0f457b"></use><use xlink:href="#SvgjsG1373" transform="translate(480, 0) scale(2)" fill="#0f457b"></use><use xlink:href="#SvgjsG1369" transform="translate(480, 60) scale(2)" fill="#0f457b"></use><use xlink:href="#SvgjsG1368" transform="translate(480, 120) scale(2)" fill="#0f457b"></use><use xlink:href="#SvgjsG1373" transform="translate(480, 180) scale(2)" fill="#0f457b"></use><use xlink:href="#SvgjsG1372" transform="translate(480, 240) scale(2)" fill="#0f457b"></use><use xlink:href="#SvgjsG1371" transform="translate(480, 300) scale(2)" fill="#0f457b"></use><use xlink:href="#SvgjsG1367" transform="translate(480, 360) scale(2)" fill="#0f457b"></use><use xlink:href="#SvgjsG1371" transform="translate(480, 420) scale(2)" fill="#0f457b"></use><use xlink:href="#SvgjsG1371" transform="translate(480, 480) scale(2)" fill="#0f457b"></use><use xlink:href="#SvgjsG1368" transform="translate(480, 540) scale(2)" fill="#0f457b"></use><use xlink:href="#SvgjsG1369" transform="translate(540, 0) scale(2)" fill="#0f457b"></use><use xlink:href="#SvgjsG1371" transform="translate(540, 60) scale(2)" fill="#0f457b"></use><use xlink:href="#SvgjsG1373" transform="translate(540, 120) scale(2)" fill="#0f457b"></use><use xlink:href="#SvgjsG1370" transform="translate(540, 180) scale(2)" fill="#0f457b"></use><use xlink:href="#SvgjsG1369" transform="translate(540, 240) scale(2)" fill="#0f457b"></use><use xlink:href="#SvgjsG1372" transform="translate(540, 300) scale(2)" fill="#0f457b"></use><use xlink:href="#SvgjsG1369" transform="translate(540, 360) scale(2)" fill="#0f457b"></use><use xlink:href="#SvgjsG1370" transform="translate(540, 420) scale(2)" fill="#0f457b"></use><use xlink:href="#SvgjsG1370" transform="translate(540, 480) scale(2)" fill="#0f457b"></use><use xlink:href="#SvgjsG1367" transform="translate(540, 540) scale(2)" fill="#0f457b"></use></g></defs></svg>