<svg xmlns="http://www.w3.org/2000/svg" version="1.1" xmlns:xlink="http://www.w3.org/1999/xlink" xmlns:svgjs="http://svgjs.com/svgjs" width="1440" height="560" preserveAspectRatio="none" viewBox="0 0 1440 560"><g mask="url(&quot;#SvgjsMask1642&quot;)" fill="none"><rect width="1440" height="560" x="0" y="0" fill="url(#SvgjsLinearGradient1643)"></rect><path d="M1440 0L1115.21 0L1440 56.09z" fill="rgba(255, 255, 255, .1)"></path><path d="M1115.21 0L1440 56.09L1440 215.37L663.3700000000001 0z" fill="rgba(255, 255, 255, .075)"></path><path d="M663.37 0L1440 215.37L1440 427.43L615.04 0z" fill="rgba(255, 255, 255, .05)"></path><path d="M615.04 0L1440 427.43L1440 451.45L340.33 0z" fill="rgba(255, 255, 255, .025)"></path><path d="M0 560L474.25 560L0 490.72z" fill="rgba(0, 0, 0, .1)"></path><path d="M0 490.72L474.25 560L606.86 560L0 401.94000000000005z" fill="rgba(0, 0, 0, .075)"></path><path d="M0 401.94L606.86 560L620.45 560L0 191.05z" fill="rgba(0, 0, 0, .05)"></path><path d="M0 191.05L620.45 560L992.84 560L0 150.22000000000003z" fill="rgba(0, 0, 0, .025)"></path></g><defs><mask id="SvgjsMask1642"><rect width="1440" height="560" fill="#ffffff"></rect></mask><linearGradient x1="0%" y1="50%" x2="100%" y2="50%" gradientUnits="userSpaceOnUse" id="SvgjsLinearGradient1643"><stop stop-color="rgba(0, 0, 0, 1)" offset="0.06"></stop><stop stop-color="rgba(255, 111, 0, 1)" offset="0.93"></stop></linearGradient></defs></svg>